<?xml version="1.0" standalone="no"?>
<!DOCTYPE svg PUBLIC "-//W3C//DTD SVG 20010904//EN"
 "http://www.w3.org/TR/2001/REC-SVG-20010904/DTD/svg10.dtd">
<svg version="1.0" xmlns="http://www.w3.org/2000/svg"
 width="512.000000pt" height="512.000000pt" viewBox="0 0 512.000000 512.000000"
 preserveAspectRatio="xMidYMid meet">
<metadata>
Created by potrace 1.14, written by Peter Selinger 2001-2017
</metadata>
<g transform="translate(0.000000,512.000000) scale(0.100000,-0.100000)"
fill="#000000" stroke="none">
<path d="M2010 5065 c-356 -49 -664 -213 -811 -433 -28 -42 -56 -80 -63 -85
-6 -4 -49 -19 -96 -33 -274 -85 -464 -266 -478 -455 -6 -89 24 -157 103 -232
l56 -53 5 -90 c4 -60 17 -128 40 -209 34 -114 35 -120 17 -133 -11 -8 -32 -12
-57 -9 -47 7 -37 -4 27 -27 26 -10 47 -20 47 -22 0 -3 -9 -21 -19 -42 -24 -47
-65 -85 -168 -157 -69 -47 -83 -61 -83 -83 0 -36 29 -68 123 -136 42 -31 77
-61 77 -67 0 -5 -22 -32 -50 -58 -27 -26 -50 -54 -50 -62 0 -21 57 -87 83 -95
45 -14 48 -23 22 -72 -42 -79 -30 -114 56 -161 32 -18 59 -38 60 -44 0 -7 0
-54 -1 -105 -2 -117 8 -135 87 -158 103 -30 289 -4 577 81 66 19 133 35 150
35 83 0 185 -164 242 -389 35 -138 39 -176 38 -381 -1 -161 -4 -201 -28 -312
-72 -337 -199 -589 -445 -878 -44 -52 -81 -98 -81 -102 0 -3 40 -16 89 -27
125 -30 364 -30 470 -1 171 48 290 129 566 386 99 92 212 191 250 219 133 100
283 158 440 171 39 4 73 9 78 13 4 4 -31 38 -79 76 -234 189 -400 422 -488
687 -53 157 -69 266 -68 463 0 204 15 285 74 405 44 92 60 109 415 450 199
192 247 273 311 530 22 92 26 129 28 300 4 223 -7 304 -63 465 -52 151 -51
145 -11 145 76 0 129 -29 219 -119 137 -137 176 -240 166 -440 -7 -150 -27
-206 -225 -621 -60 -125 -91 -201 -123 -295 -21 -61 -24 -89 -24 -215 0 -127
3 -153 23 -209 60 -162 151 -265 296 -337 107 -52 184 -69 284 -60 179 16 337
105 434 244 33 47 98 175 98 192 0 6 -19 -5 -43 -24 -65 -53 -111 -69 -197
-68 -92 0 -117 10 -176 64 -63 58 -88 115 -80 182 10 78 41 143 179 372 276
462 337 629 337 928 0 220 -31 359 -121 539 -127 255 -317 430 -552 509 -89
30 -354 37 -463 13 -99 -22 -230 -89 -332 -170 l-83 -66 -82 50 c-184 110
-341 174 -512 206 -109 21 -300 26 -415 10z"/>
</g>
</svg>
